<?xml version="1.0" encoding="iso-8859-1"?>
<!-- Generator: Adobe Illustrator 16.0.0, SVG Export Plug-In . SVG Version: 6.00 Build 0)  -->
<!DOCTYPE svg PUBLIC "-//W3C//DTD SVG 1.1//EN" "http://www.w3.org/Graphics/SVG/1.1/DTD/svg11.dtd">
<svg fill="#F20000" version="1.1" id="Capa_1" xmlns="http://www.w3.org/2000/svg" xmlns:xlink="http://www.w3.org/1999/xlink" x="0px" y="0px"
	 width="394.545px" height="394.545px" viewBox="0 0 394.545 394.545" style="enable-background:new 0 0 394.545 394.545;"
	 xml:space="preserve">
<g>
	<path d="M313.929,46.369C287.922,15.601,249.773,0,200.57,0c-6.794,0-12.298,5.503-12.298,12.298v107.519c0,0.063,0,0.123,0,0.18
		v165.91c-15.309-11.439-36.593-18.447-60.468-18.447c-47.69,0-85.052,27.91-85.052,63.543s37.362,63.543,85.052,63.543
		c47.702,0,85.063-27.91,85.063-63.543V133.24c99.668,10.712,111.39,72.971,111.846,75.643c0.919,5.969,6.022,10.376,12.069,10.418
		c0.024,0,0.061,0,0.084,0c6.005,0,11.133-4.323,12.13-10.256C349.693,204.932,365.426,107.254,313.929,46.369z M170.7,352.938
		c-6.789,0-12.298-5.506-12.298-12.298c0-16.104-13.103-29.207-29.208-29.207c-6.788,0-12.298-5.507-12.298-12.298
		s5.51-12.298,12.298-12.298c29.67,0,53.803,24.14,53.803,53.803C182.998,347.432,177.494,352.938,170.7,352.938z"/>
</g>
<g>
</g>
<g>
</g>
<g>
</g>
<g>
</g>
<g>
</g>
<g>
</g>
<g>
</g>
<g>
</g>
<g>
</g>
<g>
</g>
<g>
</g>
<g>
</g>
<g>
</g>
<g>
</g>
<g>
</g>
</svg>
